<svg id="Capa_1" enable-background="new 0 0 512 512" height="512" viewBox="0 0 512 512" width="512" xmlns="http://www.w3.org/2000/svg"><g><path d="m512 166v60c0 8.401-6.599 15-15 15h-482c-8.401 0-15-6.599-15-15v-60c0-8.401 6.599-15 15-15h482c8.401 0 15 6.599 15 15z" fill="#f93"/><path d="m512 316v60c0 8.401-6.599 15-15 15h-482c-8.401 0-15-6.599-15-15v-60c0-8.401 6.599-15 15-15h482c8.401 0 15 6.599 15 15z" fill="#f93"/><path d="m512 166v60c0 8.401-6.599 15-15 15h-241v-90h241c8.401 0 15 6.599 15 15z" fill="#e66b2e"/><path d="m512 316v60c0 8.401-6.599 15-15 15h-241v-90h241c8.401 0 15 6.599 15 15z" fill="#e66b2e"/><path d="m149.418 99.291-30-60.601c-5.098-10.166-21.738-10.166-26.836 0l-30 60.601c-1.04 2.08-1.582 4.38-1.582 6.709v360h90v-360c0-2.329-.542-4.629-1.582-6.709z" fill="#fb3"/><path d="m301 106v360h-90v-360c0-2.401.601-4.501 1.5-6.599l30-60.601c2.7-5.101 8.1-7.8 13.5-7.8s10.8 2.699 13.5 7.8l30 60.601c.899 2.098 1.5 4.198 1.5 6.599z" fill="#fb3"/><path d="m449.418 99.291-30-60.601c-5.098-10.166-21.738-10.166-26.836 0l-30 60.601c-1.04 2.08-1.582 4.38-1.582 6.709v360h90v-360c0-2.329-.542-4.629-1.582-6.709z" fill="#f93"/><path d="m301 106v360h-45v-435c5.4 0 10.8 2.699 13.5 7.8l30 60.601c.899 2.098 1.5 4.198 1.5 6.599z" fill="#f93"/><g><path d="m512 466c0 8.401-6.599 15-15 15h-482c-8.401 0-15-6.599-15-15s6.599-15 15-15h482c8.401 0 15 6.599 15 15z" fill="#4a696f"/></g><path d="m512 466c0 8.401-6.599 15-15 15h-241v-30h241c8.401 0 15 6.599 15 15z" fill="#384949"/></g></svg>